<svg xmlns="http://www.w3.org/2000/svg" height="256" width="256" viewBox="0 0 256 256"><title>person light</title><g fill="#194669" class="nc-icon-wrapper"><path fill="none" d="M0 0h256v256H0z"></path><circle cx="128" cy="40" r="24" fill="none" stroke="#194669" stroke-linecap="round" stroke-linejoin="round" stroke-width="12"></circle><path d="M149.17 80a24 24 0 0 1 18 8.13l45.32 51.38a12 12 0 0 1-17 17L160 128l22.87 86.93a12 12 0 0 1-21.75 10.14L128 168l-33.12 57.07a12 12 0 0 1-21.75-10.14L96 128l-35.51 28.49a12 12 0 0 1-17-17l45.34-51.36a24 24 0 0 1 18-8.13z" fill="none" stroke="#194669" stroke-linecap="round" stroke-linejoin="round" stroke-width="12"></path></g></svg>