<svg width="98" height="19" viewBox="0 0 98 19" fill="none" xmlns="http://www.w3.org/2000/svg">
<path d="M78.5465 18.3812V5.39719H81.1385V7.00519C81.8585 5.75719 83.1785 5.10919 84.7625 5.10919C86.5145 5.10919 88.0505 5.94919 88.8185 7.31719C89.6825 5.85319 91.1465 5.10919 92.8745 5.10919C95.5865 5.10919 97.6985 7.12519 97.6985 9.98119V18.3812H94.9865V10.7252C94.9865 8.80519 93.8825 7.62919 92.2505 7.62919C90.6185 7.62919 89.4665 8.80519 89.4665 10.7252V18.3812H86.7785V10.7252C86.7785 8.80519 85.6505 7.62919 84.0185 7.62919C82.3865 7.62919 81.2585 8.80519 81.2585 10.7252V18.3812H78.5465Z" fill="#26211D"/>
<path d="M70.796 18.6692C67.844 18.6692 65.9 16.5332 65.9 13.4132V5.39722H68.612V13.1732C68.612 14.9732 69.788 16.1492 71.468 16.1492C73.172 16.1492 74.372 14.9492 74.372 13.0532V5.39722H77.06V18.3812H74.492V16.7732C73.772 17.9972 72.428 18.6692 70.796 18.6692Z" fill="#26211D"/>
<path d="M53.7815 18.3812V0.213196H56.4935V6.7892C57.2375 5.7092 58.5095 5.1092 60.0455 5.1092C62.8775 5.1092 64.9415 7.1252 64.9415 9.9812V18.3812H62.2535V10.7252C62.2535 8.8052 61.0535 7.6292 59.3735 7.6292C57.7175 7.6292 56.4935 8.8052 56.4935 10.7252V18.3812H53.7815Z" fill="#26211D"/>
<path d="M47.0748 18.6692C43.2108 18.6692 40.3788 15.7412 40.3788 11.8532C40.3788 7.98919 43.1868 5.10919 47.0748 5.10919C49.7148 5.10919 51.9948 6.59719 52.8108 8.75719L50.4348 9.86119C49.8828 8.51719 48.6348 7.62919 47.0748 7.62919C44.8428 7.62919 43.2108 9.40519 43.2108 11.8772C43.2108 14.3492 44.8428 16.1492 47.0748 16.1492C48.6348 16.1492 49.8588 15.2612 50.4348 13.8932L52.8108 15.0212C52.0188 17.1092 49.7388 18.6692 47.0748 18.6692Z" fill="#26211D"/>
<path d="M33.1711 18.6692C29.4031 18.6692 26.3791 15.7892 26.3791 11.8772C26.3791 7.96519 29.3551 5.10919 33.1711 5.10919C36.9631 5.10919 39.9391 7.96519 39.9391 11.8772C39.9391 15.8372 36.8911 18.6692 33.1711 18.6692ZM33.1711 16.1492C35.4271 16.1492 37.1311 14.3252 37.1311 11.8772C37.1311 9.42919 35.4271 7.62919 33.1711 7.62919C30.8911 7.62919 29.2111 9.42919 29.2111 11.8772C29.2111 14.3252 30.8911 16.1492 33.1711 16.1492Z" fill="#26211D"/>
<path d="M19.445 18.6692C17.645 18.6692 16.061 17.9732 15.101 16.7252V18.3812H12.509V0.213196H15.221V6.8852C16.205 5.7572 17.669 5.1092 19.445 5.1092C23.141 5.1092 25.949 8.0372 25.949 11.8772C25.949 15.7172 23.165 18.6692 19.445 18.6692ZM19.181 16.1492C21.461 16.1492 23.141 14.3492 23.141 11.8772C23.141 9.4292 21.461 7.6292 19.181 7.6292C16.901 7.6292 15.221 9.4292 15.221 11.8772C15.221 14.3492 16.901 16.1492 19.181 16.1492Z" fill="#26211D"/>
<rect x="0.596123" y="0.475403" width="3.02747" height="18.1938" fill="#194669"/>
<path fill-rule="evenodd" clip-rule="evenodd" d="M3.83027 18.3276C4.39865 18.5482 5.01673 18.6692 5.66308 18.6692C8.46148 18.6692 10.73 16.4007 10.73 13.6023C10.73 12.006 9.99189 10.5821 8.83832 9.65338L3.83027 18.3276Z" fill="#194669"/>
<path d="M3.62602 18.6643L4.09489 17.8696L5.6247 18.6643H3.62602Z" fill="#194669"/>
<path fill-rule="evenodd" clip-rule="evenodd" d="M3.83027 9.1496C4.39865 9.37022 5.01673 9.49124 5.66308 9.49124C8.46148 9.49124 10.73 7.22269 10.73 4.42429C10.73 2.82802 9.99189 1.40416 8.83832 0.475403L3.83027 9.1496Z" fill="#194669"/>
<path d="M3.62602 9.48635L4.09489 8.69165L5.6247 9.48635H3.62602Z" fill="#194669"/>
</svg>
