<svg width="98" height="20" viewBox="0 0 98 20" fill="none" xmlns="http://www.w3.org/2000/svg">
<path d="M78.5465 19.1079V6.12388H81.1385V7.73188C81.8585 6.48388 83.1785 5.83588 84.7625 5.83588C86.5145 5.83588 88.0505 6.67588 88.8185 8.04388C89.6825 6.57988 91.1465 5.83588 92.8745 5.83588C95.5865 5.83588 97.6985 7.85188 97.6985 10.7079V19.1079H94.9865V11.4519C94.9865 9.53188 93.8825 8.35588 92.2505 8.35588C90.6185 8.35588 89.4665 9.53188 89.4665 11.4519V19.1079H86.7785V11.4519C86.7785 9.53188 85.6505 8.35588 84.0185 8.35588C82.3865 8.35588 81.2585 9.53188 81.2585 11.4519V19.1079H78.5465Z" fill="white"/>
<path d="M70.796 19.3959C67.844 19.3959 65.9 17.2599 65.9 14.1399V6.1239H68.612V13.8999C68.612 15.6999 69.788 16.8759 71.468 16.8759C73.172 16.8759 74.372 15.6759 74.372 13.7799V6.1239H77.06V19.1079H74.492V17.4999C73.772 18.7239 72.428 19.3959 70.796 19.3959Z" fill="white"/>
<path d="M53.7815 19.1079V0.93988H56.4935V7.51588C57.2375 6.43588 58.5095 5.83588 60.0455 5.83588C62.8775 5.83588 64.9415 7.85188 64.9415 10.7079V19.1079H62.2535V11.4519C62.2535 9.53188 61.0535 8.35588 59.3735 8.35588C57.7175 8.35588 56.4935 9.53188 56.4935 11.4519V19.1079H53.7815Z" fill="white"/>
<path d="M47.0748 19.3959C43.2108 19.3959 40.3788 16.4679 40.3788 12.5799C40.3788 8.71588 43.1868 5.83588 47.0748 5.83588C49.7148 5.83588 51.9948 7.32388 52.8108 9.48388L50.4348 10.5879C49.8828 9.24388 48.6348 8.35588 47.0748 8.35588C44.8428 8.35588 43.2108 10.1319 43.2108 12.6039C43.2108 15.0759 44.8428 16.8759 47.0748 16.8759C48.6348 16.8759 49.8588 15.9879 50.4348 14.6199L52.8108 15.7479C52.0188 17.8359 49.7388 19.3959 47.0748 19.3959Z" fill="white"/>
<path d="M33.1711 19.3959C29.4031 19.3959 26.3791 16.5159 26.3791 12.6039C26.3791 8.69188 29.3551 5.83588 33.1711 5.83588C36.9631 5.83588 39.9391 8.69188 39.9391 12.6039C39.9391 16.5639 36.8911 19.3959 33.1711 19.3959ZM33.1711 16.8759C35.4271 16.8759 37.1311 15.0519 37.1311 12.6039C37.1311 10.1559 35.4271 8.35588 33.1711 8.35588C30.8911 8.35588 29.2111 10.1559 29.2111 12.6039C29.2111 15.0519 30.8911 16.8759 33.1711 16.8759Z" fill="white"/>
<path d="M19.445 19.3959C17.645 19.3959 16.061 18.6999 15.101 17.4519V19.1079H12.509V0.93988H15.221V7.61188C16.205 6.48388 17.669 5.83588 19.445 5.83588C23.141 5.83588 25.949 8.76388 25.949 12.6039C25.949 16.4439 23.165 19.3959 19.445 19.3959ZM19.181 16.8759C21.461 16.8759 23.141 15.0759 23.141 12.6039C23.141 10.1559 21.461 8.35588 19.181 8.35588C16.901 8.35588 15.221 10.1559 15.221 12.6039C15.221 15.0759 16.901 16.8759 19.181 16.8759Z" fill="white"/>
<rect x="0.596123" y="1.20209" width="3.02747" height="18.1938" fill="white"/>
<path fill-rule="evenodd" clip-rule="evenodd" d="M3.83027 19.0543C4.39865 19.2749 5.01673 19.3959 5.66308 19.3959C8.46148 19.3959 10.73 17.1274 10.73 14.3289C10.73 12.7327 9.99189 11.3088 8.83832 10.3801L3.83027 19.0543Z" fill="white"/>
<path d="M3.62602 19.391L4.09489 18.5963L5.6247 19.391H3.62602Z" fill="white"/>
<path fill-rule="evenodd" clip-rule="evenodd" d="M3.83027 9.87629C4.39865 10.0969 5.01673 10.2179 5.66308 10.2179C8.46148 10.2179 10.73 7.94937 10.73 5.15097C10.73 3.5547 9.99189 2.13084 8.83832 1.20209L3.83027 9.87629Z" fill="white"/>
<path d="M3.62602 10.213L4.09489 9.41833L5.6247 10.213H3.62602Z" fill="white"/>
</svg>
